<svg width="110" height="110" viewBox="0 0 110 110" fill="none" xmlns="http://www.w3.org/2000/svg">
<rect x="4" y="4" width="102" height="102" rx="28" fill="#FEF0C7"/>
<path d="M55 40.5414V52.6943M55 64.8471H55.0306M49.7626 24.925L23.8209 67.8854C23.286 68.8042 23.003 69.8459 23 70.9069C22.997 71.9679 23.2741 73.0112 23.8038 73.933C24.3335 74.8548 25.0972 75.6229 26.0191 76.161C26.9409 76.6991 27.9887 76.9883 29.0582 77H80.9418C82.0113 76.9883 83.0591 76.6991 83.9809 76.161C84.9028 75.6229 85.6665 74.8548 86.1962 73.933C86.7259 73.0112 87.003 71.9679 87 70.9069C86.997 69.8459 86.714 68.8042 86.1791 67.8854L60.2374 24.925C59.6914 24.0321 58.9226 23.2939 58.0052 22.7815C57.0878 22.2692 56.0528 22 55 22C53.9472 22 52.9122 22.2692 51.9948 22.7815C51.0774 23.2939 50.3086 24.0321 49.7626 24.925Z" stroke="#DC6803" stroke-width="5" stroke-linecap="round" stroke-linejoin="round"/>
<rect x="4" y="4" width="102" height="102" rx="28" stroke="#FFFAEB" stroke-width="8"/>
</svg>
