<svg width="112" height="112" viewBox="0 0 112 112" fill="none" xmlns="http://www.w3.org/2000/svg">
<rect x="4" y="4" width="104" height="104" rx="28" fill="#D1FADF"/>
<path d="M87.5 52.01V55C87.496 62.0084 85.2266 68.8277 81.0303 74.441C76.834 80.0542 70.9357 84.1606 64.2149 86.1477C57.4941 88.1348 50.3111 87.8962 43.737 85.4674C37.163 83.0387 31.5501 78.5499 27.7356 72.6705C23.9211 66.7912 22.1093 59.8363 22.5704 52.8431C23.0316 45.8499 25.7409 39.1931 30.2944 33.8655C34.8479 28.538 41.0016 24.825 47.8376 23.2805C54.6737 21.736 61.8259 22.4426 68.2275 25.295M87.5 29L55 61.5325L45.25 51.7825" stroke="#039855" stroke-width="5" stroke-linecap="round" stroke-linejoin="round"/>
<rect x="4" y="4" width="104" height="104" rx="28" stroke="#ECFDF3" stroke-width="8"/>
</svg>
